<svg id="checkbox" xmlns="http://www.w3.org/2000/svg" width="17" height="17" viewBox="0 0 17 17">
  <metadata><?xpacket begin="﻿" id="W5M0MpCehiHzreSzNTczkc9d"?>
<x:xmpmeta xmlns:x="adobe:ns:meta/" x:xmptk="Adobe XMP Core 5.6-c138 79.159824, 2016/09/14-01:09:01        ">
   <rdf:RDF xmlns:rdf="http://www.w3.org/1999/02/22-rdf-syntax-ns#">
      <rdf:Description rdf:about=""/>
   </rdf:RDF>
</x:xmpmeta>
                                                                                                    
                                                                                                    
                                                                                                    
                                                                                                    
                                                                                                    
                                                                                                    
                                                                                                    
                                                                                                    
                                                                                                    
                                                                                                    
                                                                                                    
                                                                                                    
                                                                                                    
                                                                                                    
                                                                                                    
                                                                                                    
                                                                                                    
                                                                                                    
                                                                                                    
                                                                                                    
                           
<?xpacket end="w"?></metadata>
<defs>
    <style>
      .cls-1 {
        fill: #fff;
      }

      .cls-2 {
        fill: #b2b2b2;
        fill-rule: evenodd;
      }
    </style>
  </defs>
  <rect id="Rectangle_2162_copy" data-name="Rectangle 2162 copy" class="cls-1" x="1" y="1" width="15" height="15"/>
  <path class="cls-2" d="M595,476h15a1,1,0,0,1,1,1v15a1,1,0,0,1-1,1H595a1,1,0,0,1-1-1V477A1,1,0,0,1,595,476Zm0.5,1h14a0.5,0.5,0,0,1,.5.5v14a0.5,0.5,0,0,1-.5.5h-14a0.5,0.5,0,0,1-.5-0.5v-14A0.5,0.5,0,0,1,595.5,477Z" transform="translate(-594 -476)"/>
</svg>
